<svg width="48" height="48" viewBox="0 0 48 48" fill="none" xmlns="http://www.w3.org/2000/svg">
<rect width="48" height="48" rx="12" fill="#E8F4FD"/>
<path d="M24 14C21.79 14 20 15.79 20 18C20 20.21 21.79 22 24 22C26.21 22 28 20.21 28 18C28 15.79 26.21 14 24 14ZM24 24C20.67 24 14 25.67 14 29V31C14 31.55 14.45 32 15 32H33C33.55 32 34 31.55 34 31V29C34 25.67 27.33 24 24 24Z" fill="#4A90E2"/>
<rect x="14" y="16" width="20" height="2" rx="1" fill="#4A90E2"/>
<rect x="14" y="20" width="16" height="2" rx="1" fill="#4A90E2"/>
<rect x="14" y="24" width="18" height="2" rx="1" fill="#4A90E2"/>
</svg>
